<svg width="148" height="50" viewBox="0 0 148 50" fill="none" xmlns="http://www.w3.org/2000/svg">
<path d="M1 25C1 11.7452 11.7452 1 25 1H123C136.255 1 147 11.7452 147 25C147 38.2548 136.255 49 123 49H25C11.7452 49 1 38.2548 1 25Z" stroke="#D9D9D9" stroke-width="2"/>
<path d="M19 22.2283V21.9854C19 19.0586 21.1708 16.5622 24.1305 16.0816C26.0512 15.7637 28.0836 16.386 29.4844 17.7531L30 18.2547L30.477 17.7531C31.9164 16.386 33.9102 15.7637 35.8695 16.0816C38.8301 16.5622 41 19.0586 41 21.9854V22.2283C41 23.966 40.2609 25.6283 38.9547 26.8132L31.1902 33.8769C30.868 34.17 30.4426 34.3333 30 34.3333C29.5574 34.3333 29.132 34.17 28.8098 33.8769L21.0449 26.8132C19.7404 25.6283 19 23.966 19 22.2283H19Z" fill="#0065FC"/>
<path d="M52.258 31V18.93H57.596C58.1513 18.93 58.6613 19.0433 59.126 19.27C59.602 19.4967 60.01 19.8027 60.35 20.188C60.7013 20.5733 60.9677 21.004 61.149 21.48C61.3417 21.956 61.438 22.4433 61.438 22.942C61.438 23.452 61.3473 23.945 61.166 24.421C60.996 24.8857 60.7467 25.2937 60.418 25.645C60.0893 25.9963 59.704 26.2683 59.262 26.461L62.016 31H59.432L56.95 26.954H54.604V31H52.258ZM54.604 24.897H57.545C57.8397 24.897 58.1003 24.812 58.327 24.642C58.5537 24.4607 58.735 24.2227 58.871 23.928C59.007 23.6333 59.075 23.3047 59.075 22.942C59.075 22.5567 58.9957 22.2223 58.837 21.939C58.6783 21.6443 58.4743 21.412 58.225 21.242C57.987 21.072 57.7263 20.987 57.443 20.987H54.604V24.897ZM67.1578 31.17C66.4325 31.17 65.7808 31.051 65.2028 30.813C64.6248 30.5637 64.1318 30.2237 63.7238 29.793C63.3272 29.3623 63.0212 28.8693 62.8058 28.314C62.5905 27.7587 62.4828 27.175 62.4828 26.563C62.4828 25.9397 62.5905 25.3503 62.8058 24.795C63.0212 24.2397 63.3272 23.7467 63.7238 23.316C64.1318 22.8853 64.6248 22.551 65.2028 22.313C65.7808 22.0637 66.4325 21.939 67.1578 21.939C67.8832 21.939 68.5292 22.0637 69.0958 22.313C69.6738 22.551 70.1668 22.8853 70.5748 23.316C70.9828 23.7467 71.2888 24.2397 71.4928 24.795C71.7082 25.3503 71.8158 25.9397 71.8158 26.563C71.8158 27.175 71.7082 27.7587 71.4928 28.314C71.2888 28.8693 70.9828 29.3623 70.5748 29.793C70.1782 30.2237 69.6908 30.5637 69.1128 30.813C68.5348 31.051 67.8832 31.17 67.1578 31.17ZM64.8288 26.563C64.8288 27.0843 64.9308 27.549 65.1348 27.957C65.3388 28.3537 65.6165 28.6653 65.9678 28.892C66.3192 29.1187 66.7158 29.232 67.1578 29.232C67.5885 29.232 67.9795 29.1187 68.3308 28.892C68.6822 28.654 68.9598 28.3367 69.1638 27.94C69.3792 27.532 69.4868 27.0673 69.4868 26.546C69.4868 26.036 69.3792 25.577 69.1638 25.169C68.9598 24.761 68.6822 24.4437 68.3308 24.217C67.9795 23.9903 67.5885 23.877 67.1578 23.877C66.7158 23.877 66.3192 23.996 65.9678 24.234C65.6165 24.4607 65.3388 24.778 65.1348 25.186C64.9308 25.5827 64.8288 26.0417 64.8288 26.563ZM87.1914 31H84.9134V26.002C84.9134 25.2993 84.7887 24.7837 84.5394 24.455C84.3014 24.115 83.9671 23.945 83.5364 23.945C83.0944 23.945 82.6694 24.1207 82.2614 24.472C81.8647 24.812 81.5814 25.2597 81.4114 25.815V31H79.1334V26.002C79.1334 25.288 79.0087 24.7667 78.7594 24.438C78.5214 24.1093 78.1871 23.945 77.7564 23.945C77.3144 23.945 76.8894 24.115 76.4814 24.455C76.0847 24.795 75.8014 25.2427 75.6314 25.798V31H73.3534V22.092H75.4104V23.741C75.7504 23.163 76.2037 22.721 76.7704 22.415C77.3371 22.0977 77.9887 21.939 78.7254 21.939C79.4621 21.939 80.0344 22.1203 80.4424 22.483C80.8617 22.8457 81.1281 23.2933 81.2414 23.826C81.6041 23.214 82.0631 22.7493 82.6184 22.432C83.1851 22.1033 83.8197 21.939 84.5224 21.939C85.0777 21.939 85.5254 22.041 85.8654 22.245C86.2167 22.4377 86.4887 22.704 86.6814 23.044C86.8741 23.3727 87.0044 23.7467 87.0724 24.166C87.1517 24.5853 87.1914 25.0103 87.1914 25.441V31ZM88.5627 28.365C88.5627 27.787 88.7214 27.2827 89.0387 26.852C89.3674 26.41 89.8207 26.07 90.3987 25.832C90.9767 25.594 91.6397 25.475 92.3877 25.475C92.7617 25.475 93.1414 25.5033 93.5267 25.56C93.912 25.6167 94.2464 25.7073 94.5297 25.832V25.356C94.5297 24.7893 94.3597 24.353 94.0197 24.047C93.691 23.741 93.198 23.588 92.5407 23.588C92.0534 23.588 91.5887 23.673 91.1467 23.843C90.7047 24.013 90.24 24.2623 89.7527 24.591L89.0217 23.095C89.611 22.7097 90.2117 22.4207 90.8237 22.228C91.447 22.0353 92.0987 21.939 92.7787 21.939C94.048 21.939 95.034 22.2563 95.7367 22.891C96.4507 23.5257 96.8077 24.4323 96.8077 25.611V28.45C96.8077 28.688 96.8474 28.858 96.9267 28.96C97.0174 29.062 97.159 29.1243 97.3517 29.147V31C97.1477 31.034 96.9607 31.0623 96.7907 31.085C96.632 31.1077 96.496 31.119 96.3827 31.119C95.9294 31.119 95.5837 31.017 95.3457 30.813C95.119 30.609 94.9774 30.3597 94.9207 30.065L94.8697 29.606C94.4844 30.1047 94.0027 30.49 93.4247 30.762C92.8467 31.034 92.2574 31.17 91.6567 31.17C91.0674 31.17 90.5347 31.051 90.0587 30.813C89.594 30.5637 89.2257 30.2293 88.9537 29.81C88.693 29.3793 88.5627 28.8977 88.5627 28.365ZM94.1047 28.824C94.2294 28.688 94.3314 28.552 94.4107 28.416C94.49 28.28 94.5297 28.1553 94.5297 28.042V27.141C94.2577 27.0277 93.963 26.9427 93.6457 26.886C93.3284 26.818 93.028 26.784 92.7447 26.784C92.1554 26.784 91.668 26.9143 91.2827 27.175C90.9087 27.4243 90.7217 27.7587 90.7217 28.178C90.7217 28.4047 90.784 28.62 90.9087 28.824C91.0334 29.028 91.2147 29.1923 91.4527 29.317C91.6907 29.4417 91.974 29.504 92.3027 29.504C92.6427 29.504 92.977 29.4417 93.3057 29.317C93.6344 29.181 93.9007 29.0167 94.1047 28.824ZM107.215 31H104.937V26.002C104.937 25.288 104.813 24.7667 104.563 24.438C104.314 24.1093 103.968 23.945 103.526 23.945C103.22 23.945 102.909 24.0243 102.591 24.183C102.285 24.3417 102.008 24.5627 101.758 24.846C101.509 25.118 101.328 25.4353 101.214 25.798V31H98.9364V22.092H100.993V23.741C101.22 23.3557 101.509 23.0327 101.86 22.772C102.212 22.5 102.614 22.296 103.067 22.16C103.532 22.0127 104.019 21.939 104.529 21.939C105.085 21.939 105.538 22.041 105.889 22.245C106.252 22.4377 106.524 22.704 106.705 23.044C106.898 23.3727 107.028 23.7467 107.096 24.166C107.176 24.5853 107.215 25.0103 107.215 25.441V31ZM114.484 30.541C114.292 30.6203 114.059 30.711 113.787 30.813C113.515 30.915 113.221 30.9943 112.903 31.051C112.597 31.119 112.286 31.153 111.968 31.153C111.549 31.153 111.164 31.0793 110.812 30.932C110.461 30.7847 110.178 30.5523 109.962 30.235C109.758 29.9063 109.656 29.4813 109.656 28.96V23.843H108.483V22.092H109.656V19.202H111.934V22.092H113.804V23.843H111.934V28.195C111.946 28.501 112.031 28.722 112.189 28.858C112.348 28.994 112.546 29.062 112.784 29.062C113.022 29.062 113.255 29.0223 113.481 28.943C113.708 28.8637 113.889 28.7957 114.025 28.739L114.484 30.541ZM115.671 31V22.092H117.949V31H115.671ZM115.671 20.851V18.59H117.949V20.851H115.671ZM124.152 31.17C123.426 31.17 122.775 31.051 122.197 30.813C121.619 30.5637 121.126 30.2237 120.718 29.793C120.31 29.351 119.992 28.8523 119.766 28.297C119.55 27.7417 119.443 27.158 119.443 26.546C119.443 25.7073 119.63 24.9423 120.004 24.251C120.389 23.5483 120.933 22.9873 121.636 22.568C122.338 22.1487 123.171 21.939 124.135 21.939C125.098 21.939 125.925 22.1487 126.617 22.568C127.308 22.9873 127.824 23.537 128.164 24.217L125.937 24.897C125.744 24.5683 125.489 24.319 125.172 24.149C124.854 23.9677 124.503 23.877 124.118 23.877C123.687 23.877 123.29 23.9903 122.928 24.217C122.576 24.4323 122.299 24.744 122.095 25.152C121.891 25.5487 121.789 26.0133 121.789 26.546C121.789 27.0673 121.891 27.532 122.095 27.94C122.31 28.3367 122.593 28.654 122.945 28.892C123.296 29.1187 123.687 29.232 124.118 29.232C124.39 29.232 124.645 29.1867 124.883 29.096C125.132 29.0053 125.353 28.8807 125.546 28.722C125.738 28.5633 125.88 28.382 125.971 28.178L128.198 28.858C127.994 29.3 127.693 29.6967 127.297 30.048C126.911 30.3993 126.452 30.677 125.92 30.881C125.398 31.0737 124.809 31.17 124.152 31.17Z" fill="black"/>
</svg>
