<svg width="131" height="50" viewBox="0 0 131 50" fill="none" xmlns="http://www.w3.org/2000/svg">
<path d="M1 25C1 11.7452 11.7452 1 25 1H106C119.255 1 130 11.7452 130 25C130 38.2548 119.255 49 106 49H25C11.7452 49 1 38.2548 1 25Z" stroke="#D9D9D9" stroke-width="2"/>
<path d="M40.352 17.6848C39.0187 17.0942 37.6842 16.8696 36.3505 16.8696C32.1166 16.8692 27.883 19.1323 23.6491 19.1323C22.5873 19.1323 21.5262 18.99 20.4644 18.6343C20.3451 18.5944 20.2254 18.5755 20.1086 18.5755C19.517 18.5755 19 19.059 19 19.7301V31.2456C19 31.704 19.2485 32.1384 19.6476 32.3149C20.981 32.9058 22.3154 33.1304 23.6491 33.1304C27.883 33.1304 32.117 30.8673 36.3509 30.8673C37.4127 30.8673 38.4738 31.0096 39.5356 31.3653C39.6549 31.4053 39.7745 31.4241 39.8914 31.4241C40.483 31.4241 41 30.9407 41 30.2695V18.7544C40.9997 18.2957 40.7511 17.8616 40.352 17.6848ZM20.65 20.5072C21.3416 20.6901 22.0635 20.782 22.8059 20.8313C22.6038 21.8981 21.7156 22.7021 20.65 22.7021V20.5072ZM20.65 30.8517V29.1175C21.8314 29.1175 22.7874 30.1073 22.84 31.3461C22.0655 31.2804 21.3416 31.1171 20.65 30.8517ZM29.9998 28.4845C28.4808 28.4845 27.2499 26.9241 27.2499 25C27.2499 23.0756 28.4812 21.5155 29.9998 21.5155C31.5185 21.5155 32.7498 23.0756 32.7498 25C32.7498 26.9248 31.5181 28.4845 29.9998 28.4845ZM39.3497 29.4928C38.7474 29.3335 38.1222 29.2442 37.4825 29.1864C37.6842 28.2398 38.4278 27.5212 39.3497 27.3978V29.4928ZM39.3497 20.9228C38.2879 20.7809 37.4639 19.8448 37.4312 18.6888C38.1029 18.7675 38.7406 18.9149 39.3497 19.1483V20.9228Z" fill="#0065FC"/>
<path d="M61.982 27.889C61.982 28.569 61.8063 29.1413 61.455 29.606C61.1037 30.0593 60.6277 30.405 60.027 30.643C59.4377 30.881 58.7917 31 58.089 31H52.258V18.93H58.718C59.2847 18.93 59.772 19.083 60.18 19.389C60.5993 19.6837 60.9167 20.069 61.132 20.545C61.3587 21.0097 61.472 21.497 61.472 22.007C61.472 22.585 61.3247 23.1347 61.03 23.656C60.7353 24.1773 60.3047 24.5627 59.738 24.812C60.4293 25.016 60.9733 25.3843 61.37 25.917C61.778 26.4497 61.982 27.107 61.982 27.889ZM59.619 27.447C59.619 27.141 59.5567 26.869 59.432 26.631C59.3073 26.3817 59.1373 26.189 58.922 26.053C58.718 25.9057 58.48 25.832 58.208 25.832H54.604V29.011H58.089C58.3723 29.011 58.6273 28.943 58.854 28.807C59.092 28.6597 59.279 28.467 59.415 28.229C59.551 27.991 59.619 27.7303 59.619 27.447ZM54.604 20.936V23.979H57.732C57.9927 23.979 58.2307 23.9167 58.446 23.792C58.6613 23.6673 58.8313 23.4917 58.956 23.265C59.092 23.0383 59.16 22.7663 59.16 22.449C59.16 22.143 59.0977 21.8767 58.973 21.65C58.8597 21.4233 58.701 21.2477 58.497 21.123C58.3043 20.9983 58.0833 20.936 57.834 20.936H54.604ZM63.4735 27.668V22.092H65.7515V27.175C65.7515 27.855 65.8762 28.3707 66.1255 28.722C66.3748 29.062 66.7432 29.232 67.2305 29.232C67.5252 29.232 67.8142 29.1753 68.0975 29.062C68.3922 28.9373 68.6585 28.756 68.8965 28.518C69.1458 28.28 69.3555 27.9797 69.5255 27.617V22.092H71.8035V28.45C71.8035 28.688 71.8432 28.858 71.9225 28.96C72.0132 29.062 72.1548 29.1243 72.3475 29.147V31C72.1208 31.034 71.9282 31.0567 71.7695 31.068C71.6222 31.0907 71.4862 31.102 71.3615 31.102C70.9535 31.102 70.6192 31.0113 70.3585 30.83C70.1092 30.6373 69.9618 30.3767 69.9165 30.048L69.8655 29.334C69.4688 29.9347 68.9588 30.3937 68.3355 30.711C67.7122 31.017 67.0265 31.17 66.2785 31.17C65.3605 31.17 64.6635 30.8753 64.1875 30.286C63.7115 29.6853 63.4735 28.8127 63.4735 27.668ZM73.5233 26.546C73.5233 25.6847 73.6933 24.9083 74.0333 24.217C74.3733 23.5143 74.8436 22.959 75.4443 22.551C76.0449 22.143 76.7306 21.939 77.5013 21.939C78.1586 21.939 78.7479 22.1033 79.2693 22.432C79.8019 22.7493 80.2156 23.1573 80.5103 23.656V18.59H82.7883V28.45C82.7883 28.688 82.8279 28.858 82.9073 28.96C82.9866 29.062 83.1226 29.1243 83.3153 29.147V31C82.9186 31.0793 82.5956 31.119 82.3463 31.119C81.9383 31.119 81.5983 31.017 81.3263 30.813C81.0656 30.609 80.9183 30.3427 80.8843 30.014L80.8503 29.453C80.5216 30.0083 80.0739 30.4333 79.5073 30.728C78.9519 31.0227 78.3683 31.17 77.7563 31.17C77.1443 31.17 76.5776 31.051 76.0563 30.813C75.5463 30.575 75.0986 30.2463 74.7133 29.827C74.3393 29.4077 74.0446 28.9203 73.8293 28.365C73.6253 27.7983 73.5233 27.192 73.5233 26.546ZM80.5103 27.736V25.611C80.3969 25.2823 80.2156 24.9877 79.9663 24.727C79.7169 24.4663 79.4393 24.2623 79.1333 24.115C78.8273 23.9563 78.5213 23.877 78.2153 23.877C77.8639 23.877 77.5466 23.9507 77.2633 24.098C76.9799 24.2453 76.7306 24.4437 76.5153 24.693C76.3113 24.9423 76.1526 25.2313 76.0393 25.56C75.9373 25.8887 75.8863 26.2343 75.8863 26.597C75.8863 26.9597 75.9429 27.3053 76.0563 27.634C76.1809 27.9513 76.3566 28.229 76.5833 28.467C76.8099 28.705 77.0706 28.892 77.3653 29.028C77.6713 29.164 77.9999 29.232 78.3513 29.232C78.5666 29.232 78.7819 29.198 78.9973 29.13C79.2239 29.0507 79.4336 28.9487 79.6263 28.824C79.8303 28.688 80.0059 28.5293 80.1533 28.348C80.3119 28.1553 80.4309 27.9513 80.5103 27.736ZM88.5093 31.051C87.92 31.051 87.376 30.9377 86.8773 30.711C86.39 30.473 85.965 30.1443 85.6023 29.725C85.251 29.3057 84.979 28.824 84.7863 28.28C84.5936 27.736 84.4973 27.158 84.4973 26.546C84.4973 25.9 84.5993 25.2993 84.8033 24.744C85.0073 24.1887 85.2906 23.7013 85.6533 23.282C86.0273 22.8513 86.4636 22.5227 86.9623 22.296C87.4723 22.058 88.0333 21.939 88.6453 21.939C89.3366 21.939 89.943 22.0977 90.4643 22.415C90.9856 22.721 91.4163 23.1347 91.7563 23.656V22.092H93.7453V30.575C93.7453 31.459 93.53 32.2127 93.0993 32.836C92.68 33.4707 92.0963 33.9523 91.3483 34.281C90.6003 34.621 89.7503 34.791 88.7983 34.791C87.835 34.791 87.019 34.6267 86.3503 34.298C85.6816 33.9807 85.1093 33.5273 84.6333 32.938L85.8743 31.731C86.2143 32.1503 86.6393 32.479 87.1493 32.717C87.6706 32.955 88.2203 33.074 88.7983 33.074C89.2856 33.074 89.7276 32.9833 90.1243 32.802C90.5323 32.632 90.8553 32.36 91.0933 31.986C91.3426 31.6233 91.4673 31.153 91.4673 30.575V29.453C91.1726 29.963 90.7533 30.3597 90.2093 30.643C89.6766 30.915 89.11 31.051 88.5093 31.051ZM89.2743 29.232C89.5236 29.232 89.7616 29.1923 89.9883 29.113C90.215 29.0337 90.4246 28.926 90.6173 28.79C90.81 28.654 90.98 28.4953 91.1273 28.314C91.2746 28.1213 91.388 27.9287 91.4673 27.736V25.611C91.3313 25.2597 91.1386 24.9537 90.8893 24.693C90.6513 24.4323 90.3793 24.234 90.0733 24.098C89.7786 23.9507 89.467 23.877 89.1383 23.877C88.787 23.877 88.4696 23.9507 88.1863 24.098C87.903 24.2453 87.6593 24.455 87.4553 24.727C87.2513 24.9877 87.0926 25.2823 86.9793 25.611C86.8773 25.9283 86.8263 26.2627 86.8263 26.614C86.8263 26.9767 86.8886 27.3167 87.0133 27.634C87.138 27.9513 87.308 28.229 87.5233 28.467C87.75 28.705 88.0106 28.892 88.3053 29.028C88.6113 29.164 88.9343 29.232 89.2743 29.232ZM99.9297 31.17C99.2157 31.17 98.5697 31.051 97.9917 30.813C97.4137 30.5637 96.9207 30.2293 96.5127 29.81C96.1047 29.3793 95.7874 28.892 95.5607 28.348C95.3454 27.7927 95.2377 27.209 95.2377 26.597C95.2377 25.747 95.4247 24.9707 95.7987 24.268C96.1841 23.5653 96.7281 23.0043 97.4307 22.585C98.1447 22.1543 98.9834 21.939 99.9467 21.939C100.921 21.939 101.754 22.1543 102.446 22.585C103.137 23.0043 103.664 23.5653 104.027 24.268C104.401 24.9593 104.588 25.7073 104.588 26.512C104.588 26.648 104.582 26.7897 104.571 26.937C104.559 27.073 104.548 27.1863 104.537 27.277H97.6517C97.6971 27.7303 97.8274 28.127 98.0427 28.467C98.2694 28.807 98.5527 29.0677 98.8927 29.249C99.2441 29.419 99.6181 29.504 100.015 29.504C100.468 29.504 100.893 29.3963 101.29 29.181C101.698 28.9543 101.975 28.6597 102.123 28.297L104.078 28.841C103.862 29.2943 103.551 29.6967 103.143 30.048C102.746 30.3993 102.276 30.677 101.732 30.881C101.188 31.0737 100.587 31.17 99.9297 31.17ZM97.6007 25.832H102.259C102.213 25.3787 102.083 24.9877 101.868 24.659C101.664 24.319 101.392 24.0583 101.052 23.877C100.712 23.6843 100.332 23.588 99.9127 23.588C99.5047 23.588 99.1307 23.6843 98.7907 23.877C98.4621 24.0583 98.1901 24.319 97.9747 24.659C97.7707 24.9877 97.6461 25.3787 97.6007 25.832ZM111.23 30.541C111.038 30.6203 110.805 30.711 110.533 30.813C110.261 30.915 109.967 30.9943 109.649 31.051C109.343 31.119 109.032 31.153 108.714 31.153C108.295 31.153 107.91 31.0793 107.558 30.932C107.207 30.7847 106.924 30.5523 106.708 30.235C106.504 29.9063 106.402 29.4813 106.402 28.96V23.843H105.229V22.092H106.402V19.202H108.68V22.092H110.55V23.843H108.68V28.195C108.692 28.501 108.777 28.722 108.935 28.858C109.094 28.994 109.292 29.062 109.53 29.062C109.768 29.062 110.001 29.0223 110.227 28.943C110.454 28.8637 110.635 28.7957 110.771 28.739L111.23 30.541Z" fill="black"/>
</svg>
