<svg width="197" height="50" viewBox="0 0 197 50" fill="none" xmlns="http://www.w3.org/2000/svg">
<path d="M1 25C1 11.7452 11.7452 1 25 1H172C185.255 1 196 11.7452 196 25C196 38.2548 185.255 49 172 49H25C11.7452 49 1 38.2548 1 25Z" stroke="#D9D9D9" stroke-width="2"/>
<path d="M31.7396 16.0625C31.7396 17.2016 30.8362 18.125 29.7228 18.125C28.6094 18.125 27.706 17.2016 27.706 16.0625C27.706 14.9234 28.6094 14 29.7228 14C30.8362 14 31.7396 14.9234 31.7396 16.0625ZM29.3867 29.125V34.625C29.3867 35.3855 28.7858 36 28.0421 36C27.2985 36 26.6976 35.3855 26.6976 34.625V25.0387L25.4972 27.084C25.1149 27.7328 24.2888 27.9434 23.6523 27.5523C23.0157 27.1613 22.8098 26.3191 23.1923 25.666L25.6409 21.5023C26.3699 20.2605 27.6808 19.5 29.0968 19.5H30.3488C31.7648 19.5 33.0757 20.2605 33.8068 21.5023L36.2522 25.666C36.6345 26.3191 36.4286 27.1613 35.7942 27.5523C35.1555 27.9434 34.332 27.7328 33.9497 27.084L32.748 25.0387V34.625C32.748 35.3855 32.1472 36 31.4035 36C30.6598 36 30.0589 35.3855 30.0589 34.625V29.125H29.3867Z" fill="#0065FC"/>
<path d="M52.258 31V18.93H60.367V20.987H54.604V24.098H59.398V26.002H54.604V31H52.258ZM60.4563 28.365C60.4563 27.787 60.6149 27.2827 60.9323 26.852C61.2609 26.41 61.7143 26.07 62.2923 25.832C62.8703 25.594 63.5333 25.475 64.2812 25.475C64.6553 25.475 65.0349 25.5033 65.4203 25.56C65.8056 25.6167 66.1399 25.7073 66.4233 25.832V25.356C66.4233 24.7893 66.2533 24.353 65.9133 24.047C65.5846 23.741 65.0916 23.588 64.4343 23.588C63.9469 23.588 63.4823 23.673 63.0403 23.843C62.5983 24.013 62.1336 24.2623 61.6463 24.591L60.9153 23.095C61.5046 22.7097 62.1053 22.4207 62.7173 22.228C63.3406 22.0353 63.9923 21.939 64.6723 21.939C65.9416 21.939 66.9276 22.2563 67.6303 22.891C68.3443 23.5257 68.7013 24.4323 68.7013 25.611V28.45C68.7013 28.688 68.7409 28.858 68.8203 28.96C68.9109 29.062 69.0526 29.1243 69.2453 29.147V31C69.0413 31.034 68.8543 31.0623 68.6843 31.085C68.5256 31.1077 68.3896 31.119 68.2763 31.119C67.8229 31.119 67.4773 31.017 67.2393 30.813C67.0126 30.609 66.8709 30.3597 66.8143 30.065L66.7633 29.606C66.3779 30.1047 65.8963 30.49 65.3183 30.762C64.7403 31.034 64.1509 31.17 63.5503 31.17C62.9609 31.17 62.4283 31.051 61.9523 30.813C61.4876 30.5637 61.1193 30.2293 60.8473 29.81C60.5866 29.3793 60.4563 28.8977 60.4563 28.365ZM65.9983 28.824C66.1229 28.688 66.2249 28.552 66.3043 28.416C66.3836 28.28 66.4233 28.1553 66.4233 28.042V27.141C66.1513 27.0277 65.8566 26.9427 65.5393 26.886C65.2219 26.818 64.9216 26.784 64.6383 26.784C64.0489 26.784 63.5616 26.9143 63.1763 27.175C62.8023 27.4243 62.6153 27.7587 62.6153 28.178C62.6153 28.4047 62.6776 28.62 62.8023 28.824C62.9269 29.028 63.1083 29.1923 63.3463 29.317C63.5843 29.4417 63.8676 29.504 64.1963 29.504C64.5363 29.504 64.8706 29.4417 65.1993 29.317C65.5279 29.181 65.7943 29.0167 65.9983 28.824ZM84.668 31H82.39V26.002C82.39 25.2993 82.2653 24.7837 82.016 24.455C81.778 24.115 81.4436 23.945 81.013 23.945C80.571 23.945 80.146 24.1207 79.738 24.472C79.3413 24.812 79.058 25.2597 78.888 25.815V31H76.61V26.002C76.61 25.288 76.4853 24.7667 76.236 24.438C75.998 24.1093 75.6636 23.945 75.233 23.945C74.791 23.945 74.366 24.115 73.958 24.455C73.5613 24.795 73.278 25.2427 73.108 25.798V31H70.83V22.092H72.887V23.741C73.227 23.163 73.6803 22.721 74.247 22.415C74.8136 22.0977 75.4653 21.939 76.202 21.939C76.9386 21.939 77.511 22.1203 77.919 22.483C78.3383 22.8457 78.6046 23.2933 78.718 23.826C79.0806 23.214 79.5396 22.7493 80.095 22.432C80.6616 22.1033 81.2963 21.939 81.999 21.939C82.5543 21.939 83.002 22.041 83.342 22.245C83.6933 22.4377 83.9653 22.704 84.158 23.044C84.3506 23.3727 84.481 23.7467 84.549 24.166C84.6283 24.5853 84.668 25.0103 84.668 25.441V31ZM86.6513 31V22.092H88.9293V31H86.6513ZM86.6513 20.851V18.59H88.9293V20.851H86.6513ZM90.9673 18.59H93.2453V28.144C93.2453 28.552 93.3133 28.8297 93.4493 28.977C93.5853 29.113 93.7723 29.181 94.0103 29.181C94.1916 29.181 94.3786 29.1583 94.5713 29.113C94.7639 29.0677 94.9339 29.011 95.0813 28.943L95.3873 30.677C95.0813 30.8243 94.7243 30.9377 94.3163 31.017C93.9083 31.0963 93.5399 31.136 93.2113 31.136C92.4973 31.136 91.9419 30.949 91.5453 30.575C91.1599 30.1897 90.9673 29.6457 90.9673 28.943V18.59ZM96.1351 32.734C96.3391 32.7793 96.5261 32.819 96.6961 32.853C96.8775 32.887 97.0305 32.904 97.1551 32.904C97.3705 32.904 97.5461 32.8473 97.6821 32.734C97.8295 32.632 97.9711 32.4393 98.1071 32.156C98.2431 31.884 98.3848 31.4987 98.5321 31L95.0131 22.092H97.3761L99.7731 28.671L101.881 22.092H104.057L100.317 32.768C100.181 33.1647 99.9715 33.5217 99.6881 33.839C99.4161 34.1677 99.0705 34.4227 98.6511 34.604C98.2431 34.7967 97.7841 34.893 97.2741 34.893C97.0928 34.893 96.9115 34.876 96.7301 34.842C96.5488 34.8193 96.3505 34.774 96.1351 34.706V32.734ZM105.144 27.362V25.305H110.295V27.362H105.144ZM112.522 31V18.93H120.631V20.987H114.868V24.098H119.662V26.002H114.868V31H112.522ZM126.918 24.064C126.227 24.064 125.609 24.2 125.065 24.472C124.521 24.7327 124.13 25.1123 123.892 25.611V31H121.614V22.092H123.705V23.996C124.022 23.384 124.425 22.9023 124.912 22.551C125.399 22.1997 125.915 22.007 126.459 21.973C126.584 21.973 126.68 21.973 126.748 21.973C126.816 21.973 126.873 21.9787 126.918 21.99V24.064ZM128.188 31V22.092H130.466V31H128.188ZM128.188 20.851V18.59H130.466V20.851H128.188ZM136.652 31.17C135.938 31.17 135.292 31.051 134.714 30.813C134.136 30.5637 133.643 30.2293 133.235 29.81C132.827 29.3793 132.51 28.892 132.283 28.348C132.068 27.7927 131.96 27.209 131.96 26.597C131.96 25.747 132.147 24.9707 132.521 24.268C132.907 23.5653 133.451 23.0043 134.153 22.585C134.867 22.1543 135.706 21.939 136.669 21.939C137.644 21.939 138.477 22.1543 139.168 22.585C139.86 23.0043 140.387 23.5653 140.749 24.268C141.123 24.9593 141.31 25.7073 141.31 26.512C141.31 26.648 141.305 26.7897 141.293 26.937C141.282 27.073 141.271 27.1863 141.259 27.277H134.374C134.42 27.7303 134.55 28.127 134.765 28.467C134.992 28.807 135.275 29.0677 135.615 29.249C135.967 29.419 136.341 29.504 136.737 29.504C137.191 29.504 137.616 29.3963 138.012 29.181C138.42 28.9543 138.698 28.6597 138.845 28.297L140.8 28.841C140.585 29.2943 140.273 29.6967 139.865 30.048C139.469 30.3993 138.998 30.677 138.454 30.881C137.91 31.0737 137.31 31.17 136.652 31.17ZM134.323 25.832H138.981C138.936 25.3787 138.806 24.9877 138.59 24.659C138.386 24.319 138.114 24.0583 137.774 23.877C137.434 23.6843 137.055 23.588 136.635 23.588C136.227 23.588 135.853 23.6843 135.513 23.877C135.185 24.0583 134.913 24.319 134.697 24.659C134.493 24.9877 134.369 25.3787 134.323 25.832ZM150.977 31H148.699V26.002C148.699 25.288 148.574 24.7667 148.325 24.438C148.076 24.1093 147.73 23.945 147.288 23.945C146.982 23.945 146.67 24.0243 146.353 24.183C146.047 24.3417 145.769 24.5627 145.52 24.846C145.271 25.118 145.089 25.4353 144.976 25.798V31H142.698V22.092H144.755V23.741C144.982 23.3557 145.271 23.0327 145.622 22.772C145.973 22.5 146.376 22.296 146.829 22.16C147.294 22.0127 147.781 21.939 148.291 21.939C148.846 21.939 149.3 22.041 149.651 22.245C150.014 22.4377 150.286 22.704 150.467 23.044C150.66 23.3727 150.79 23.7467 150.858 24.166C150.937 24.5853 150.977 25.0103 150.977 25.441V31ZM152.414 26.546C152.414 25.6847 152.584 24.9083 152.924 24.217C153.264 23.5143 153.734 22.959 154.335 22.551C154.936 22.143 155.621 21.939 156.392 21.939C157.049 21.939 157.639 22.1033 158.16 22.432C158.693 22.7493 159.106 23.1573 159.401 23.656V18.59H161.679V28.45C161.679 28.688 161.719 28.858 161.798 28.96C161.877 29.062 162.013 29.1243 162.206 29.147V31C161.809 31.0793 161.486 31.119 161.237 31.119C160.829 31.119 160.489 31.017 160.217 30.813C159.956 30.609 159.809 30.3427 159.775 30.014L159.741 29.453C159.412 30.0083 158.965 30.4333 158.398 30.728C157.843 31.0227 157.259 31.17 156.647 31.17C156.035 31.17 155.468 31.051 154.947 30.813C154.437 30.575 153.989 30.2463 153.604 29.827C153.23 29.4077 152.935 28.9203 152.72 28.365C152.516 27.7983 152.414 27.192 152.414 26.546ZM159.401 27.736V25.611C159.288 25.2823 159.106 24.9877 158.857 24.727C158.608 24.4663 158.33 24.2623 158.024 24.115C157.718 23.9563 157.412 23.877 157.106 23.877C156.755 23.877 156.437 23.9507 156.154 24.098C155.871 24.2453 155.621 24.4437 155.406 24.693C155.202 24.9423 155.043 25.2313 154.93 25.56C154.828 25.8887 154.777 26.2343 154.777 26.597C154.777 26.9597 154.834 27.3053 154.947 27.634C155.072 27.9513 155.247 28.229 155.474 28.467C155.701 28.705 155.961 28.892 156.256 29.028C156.562 29.164 156.891 29.232 157.242 29.232C157.457 29.232 157.673 29.198 157.888 29.13C158.115 29.0507 158.324 28.9487 158.517 28.824C158.721 28.688 158.897 28.5293 159.044 28.348C159.203 28.1553 159.322 27.9513 159.401 27.736ZM163.898 18.59H166.176V28.144C166.176 28.552 166.244 28.8297 166.38 28.977C166.516 29.113 166.703 29.181 166.941 29.181C167.122 29.181 167.309 29.1583 167.502 29.113C167.695 29.0677 167.865 29.011 168.012 28.943L168.318 30.677C168.012 30.8243 167.655 30.9377 167.247 31.017C166.839 31.0963 166.471 31.136 166.142 31.136C165.428 31.136 164.873 30.949 164.476 30.575C164.091 30.1897 163.898 29.6457 163.898 28.943V18.59ZM169.066 32.734C169.27 32.7793 169.457 32.819 169.627 32.853C169.808 32.887 169.961 32.904 170.086 32.904C170.301 32.904 170.477 32.8473 170.613 32.734C170.76 32.632 170.902 32.4393 171.038 32.156C171.174 31.884 171.315 31.4987 171.463 31L167.944 22.092H170.307L172.704 28.671L174.812 22.092H176.988L173.248 32.768C173.112 33.1647 172.902 33.5217 172.619 33.839C172.347 34.1677 172.001 34.4227 171.582 34.604C171.174 34.7967 170.715 34.893 170.205 34.893C170.023 34.893 169.842 34.876 169.661 34.842C169.479 34.8193 169.281 34.774 169.066 34.706V32.734Z" fill="black"/>
</svg>
