<svg width="180" height="50" viewBox="0 0 180 50" fill="none" xmlns="http://www.w3.org/2000/svg">
<path d="M1 25C1 11.7452 11.7452 1 25 1H155C168.255 1 179 11.7452 179 25C179 38.2548 168.255 49 155 49H25C11.7452 49 1 38.2548 1 25Z" fill="#DEEBFF"/>
<path d="M1 25C1 11.7452 11.7452 1 25 1H155C168.255 1 179 11.7452 179 25C179 38.2548 168.255 49 155 49H25C11.7452 49 1 38.2548 1 25Z" stroke="#D9D9D9" stroke-width="2"/>
<path d="M27.8973 15.2127C28.2107 14.9265 28.6968 14.9304 29.0102 15.2166C30.1191 16.2322 31.1598 17.3262 32.1321 18.5104C32.5741 17.9457 33.0763 17.3301 33.6187 16.8282C33.9361 16.5381 34.4263 16.5381 34.7437 16.8321C36.1339 18.1261 37.3111 19.8357 38.1388 21.459C38.9544 23.0588 39.4968 24.6939 39.4968 25.8467C39.4968 30.85 35.487 35.0769 30.4968 35.0769C25.4504 35.0769 21.4968 30.8461 21.4968 25.8428C21.4968 24.3371 22.212 22.4981 23.3209 20.6787C24.4419 18.8319 26.025 16.9066 27.8973 15.2127ZM30.5651 31.3127C31.5816 31.3127 32.4816 31.0382 33.3294 30.4893C35.0209 29.3365 35.475 27.0309 34.4584 25.2193C34.2776 24.8664 33.8156 24.8429 33.5544 25.1409L32.5419 26.2898C32.2767 26.5878 31.7986 26.5799 31.5495 26.2702C30.8866 25.4468 29.7013 23.9763 29.0263 23.1412C28.7732 22.8275 28.291 22.8235 28.0339 23.1372C26.6758 24.8037 25.9928 25.8545 25.9928 27.0348C25.9968 29.7207 28.0299 31.3127 30.5651 31.3127Z" fill="#0065FC"/>
<path d="M57.409 31.085C56.525 31.085 55.7203 30.915 54.995 30.575C54.281 30.235 53.6633 29.776 53.142 29.198C52.632 28.6087 52.2353 27.9513 51.952 27.226C51.6687 26.4893 51.527 25.7357 51.527 24.965C51.527 24.1603 51.6743 23.3953 51.969 22.67C52.275 21.9333 52.6887 21.2817 53.21 20.715C53.7427 20.137 54.366 19.6837 55.08 19.355C55.8053 19.015 56.5987 18.845 57.46 18.845C58.3327 18.845 59.126 19.0207 59.84 19.372C60.5653 19.7233 61.183 20.1937 61.693 20.783C62.203 21.3723 62.5997 22.0297 62.883 22.755C63.1663 23.4803 63.308 24.2283 63.308 24.999C63.308 25.7923 63.1607 26.5573 62.866 27.294C62.5713 28.0193 62.1577 28.671 61.625 29.249C61.1037 29.8157 60.4803 30.2633 59.755 30.592C59.041 30.9207 58.259 31.085 57.409 31.085ZM53.907 24.965C53.907 25.4863 53.9863 25.9907 54.145 26.478C54.3037 26.9653 54.5303 27.4017 54.825 27.787C55.131 28.161 55.4993 28.4613 55.93 28.688C56.372 28.9033 56.8707 29.011 57.426 29.011C57.9927 29.011 58.497 28.8977 58.939 28.671C59.381 28.433 59.7493 28.1213 60.044 27.736C60.3387 27.3393 60.5597 26.903 60.707 26.427C60.8657 25.9397 60.945 25.4523 60.945 24.965C60.945 24.4437 60.86 23.945 60.69 23.469C60.5313 22.9817 60.299 22.551 59.993 22.177C59.6983 21.7917 59.33 21.4913 58.888 21.276C58.4573 21.0493 57.97 20.936 57.426 20.936C56.848 20.936 56.338 21.055 55.896 21.293C55.4653 21.5197 55.1027 21.8257 54.808 22.211C54.5133 22.5963 54.2867 23.027 54.128 23.503C53.9807 23.979 53.907 24.4663 53.907 24.965ZM64.8016 27.668V22.092H67.0796V27.175C67.0796 27.855 67.2043 28.3707 67.4536 28.722C67.7029 29.062 68.0713 29.232 68.5586 29.232C68.8533 29.232 69.1423 29.1753 69.4256 29.062C69.7203 28.9373 69.9866 28.756 70.2246 28.518C70.4739 28.28 70.6836 27.9797 70.8536 27.617V22.092H73.1316V28.45C73.1316 28.688 73.1713 28.858 73.2506 28.96C73.3413 29.062 73.4829 29.1243 73.6756 29.147V31C73.4489 31.034 73.2563 31.0567 73.0976 31.068C72.9503 31.0907 72.8143 31.102 72.6896 31.102C72.2816 31.102 71.9473 31.0113 71.6866 30.83C71.4373 30.6373 71.2899 30.3767 71.2446 30.048L71.1936 29.334C70.7969 29.9347 70.2869 30.3937 69.6636 30.711C69.0403 31.017 68.3546 31.17 67.6066 31.17C66.6886 31.17 65.9916 30.8753 65.5156 30.286C65.0396 29.6853 64.8016 28.8127 64.8016 27.668ZM80.6994 24.064C80.0081 24.064 79.3904 24.2 78.8464 24.472C78.3024 24.7327 77.9114 25.1123 77.6734 25.611V31H75.3954V22.092H77.4864V23.996C77.8037 23.384 78.2061 22.9023 78.6934 22.551C79.1807 22.1997 79.6964 22.007 80.2404 21.973C80.3651 21.973 80.4614 21.973 80.5294 21.973C80.5974 21.973 80.6541 21.9787 80.6994 21.99V24.064ZM94.4217 20.987H90.5627V31H88.2337V20.987H84.3747V18.93H94.4217V20.987ZM98.1364 31.17C97.411 31.17 96.7594 31.051 96.1814 30.813C95.6034 30.5637 95.1104 30.2237 94.7024 29.793C94.3057 29.3623 93.9997 28.8693 93.7844 28.314C93.569 27.7587 93.4614 27.175 93.4614 26.563C93.4614 25.9397 93.569 25.3503 93.7844 24.795C93.9997 24.2397 94.3057 23.7467 94.7024 23.316C95.1104 22.8853 95.6034 22.551 96.1814 22.313C96.7594 22.0637 97.411 21.939 98.1364 21.939C98.8617 21.939 99.5077 22.0637 100.074 22.313C100.652 22.551 101.145 22.8853 101.553 23.316C101.961 23.7467 102.267 24.2397 102.471 24.795C102.687 25.3503 102.794 25.9397 102.794 26.563C102.794 27.175 102.687 27.7587 102.471 28.314C102.267 28.8693 101.961 29.3623 101.553 29.793C101.157 30.2237 100.669 30.5637 100.091 30.813C99.5134 31.051 98.8617 31.17 98.1364 31.17ZM95.8074 26.563C95.8074 27.0843 95.9094 27.549 96.1134 27.957C96.3174 28.3537 96.595 28.6653 96.9464 28.892C97.2977 29.1187 97.6944 29.232 98.1364 29.232C98.567 29.232 98.958 29.1187 99.3094 28.892C99.6607 28.654 99.9384 28.3367 100.142 27.94C100.358 27.532 100.465 27.0673 100.465 26.546C100.465 26.036 100.358 25.577 100.142 25.169C99.9384 24.761 99.6607 24.4437 99.3094 24.217C98.958 23.9903 98.567 23.877 98.1364 23.877C97.6944 23.877 97.2977 23.996 96.9464 24.234C96.595 24.4607 96.3174 24.778 96.1134 25.186C95.9094 25.5827 95.8074 26.0417 95.8074 26.563ZM109.67 31.17C108.979 31.17 108.367 31.017 107.834 30.711C107.313 30.3937 106.905 29.9687 106.61 29.436V34.621H104.332V22.092H106.321V23.622C106.661 23.1007 107.092 22.6927 107.613 22.398C108.134 22.092 108.729 21.939 109.398 21.939C109.999 21.939 110.548 22.058 111.047 22.296C111.557 22.534 111.999 22.8683 112.373 23.299C112.747 23.7183 113.036 24.2057 113.24 24.761C113.455 25.305 113.563 25.8943 113.563 26.529C113.563 27.3903 113.393 28.1723 113.053 28.875C112.724 29.5777 112.265 30.1387 111.676 30.558C111.098 30.966 110.429 31.17 109.67 31.17ZM108.905 29.232C109.256 29.232 109.574 29.1583 109.857 29.011C110.14 28.8637 110.384 28.6653 110.588 28.416C110.803 28.1553 110.962 27.8663 111.064 27.549C111.177 27.2203 111.234 26.8803 111.234 26.529C111.234 26.155 111.172 25.8093 111.047 25.492C110.934 25.1747 110.764 24.897 110.537 24.659C110.31 24.4097 110.044 24.217 109.738 24.081C109.443 23.945 109.12 23.877 108.769 23.877C108.554 23.877 108.333 23.9167 108.106 23.996C107.891 24.064 107.681 24.166 107.477 24.302C107.273 24.438 107.092 24.5967 106.933 24.778C106.786 24.9593 106.678 25.1577 106.61 25.373V27.464C106.746 27.7927 106.927 28.093 107.154 28.365C107.392 28.637 107.664 28.8523 107.97 29.011C108.276 29.1583 108.588 29.232 108.905 29.232ZM119.411 31V18.93H124.528C125.084 18.93 125.594 19.0433 126.058 19.27C126.523 19.4967 126.925 19.8027 127.265 20.188C127.617 20.5733 127.889 21.004 128.081 21.48C128.274 21.956 128.37 22.4433 128.37 22.942C128.37 23.622 128.212 24.268 127.894 24.88C127.577 25.492 127.141 25.9907 126.585 26.376C126.03 26.7613 125.373 26.954 124.613 26.954H121.757V31H119.411ZM121.757 24.897H124.477C124.761 24.897 125.016 24.8177 125.242 24.659C125.469 24.5003 125.65 24.2737 125.786 23.979C125.922 23.673 125.99 23.3273 125.99 22.942C125.99 22.5227 125.911 22.1657 125.752 21.871C125.605 21.5763 125.407 21.3553 125.157 21.208C124.919 21.0607 124.659 20.987 124.375 20.987H121.757V24.897ZM129.782 31V22.092H132.06V31H129.782ZM129.782 20.851V18.59H132.06V20.851H129.782ZM138.263 31.17C137.538 31.17 136.886 31.051 136.308 30.813C135.73 30.5637 135.237 30.2237 134.829 29.793C134.421 29.351 134.104 28.8523 133.877 28.297C133.662 27.7417 133.554 27.158 133.554 26.546C133.554 25.7073 133.741 24.9423 134.115 24.251C134.5 23.5483 135.044 22.9873 135.747 22.568C136.45 22.1487 137.283 21.939 138.246 21.939C139.209 21.939 140.037 22.1487 140.728 22.568C141.419 22.9873 141.935 23.537 142.275 24.217L140.048 24.897C139.855 24.5683 139.6 24.319 139.283 24.149C138.966 23.9677 138.614 23.877 138.229 23.877C137.798 23.877 137.402 23.9903 137.039 24.217C136.688 24.4323 136.41 24.744 136.206 25.152C136.002 25.5487 135.9 26.0133 135.9 26.546C135.9 27.0673 136.002 27.532 136.206 27.94C136.421 28.3367 136.705 28.654 137.056 28.892C137.407 29.1187 137.798 29.232 138.229 29.232C138.501 29.232 138.756 29.1867 138.994 29.096C139.243 29.0053 139.464 28.8807 139.657 28.722C139.85 28.5633 139.991 28.382 140.082 28.178L142.309 28.858C142.105 29.3 141.805 29.6967 141.408 30.048C141.023 30.3993 140.564 30.677 140.031 30.881C139.51 31.0737 138.92 31.17 138.263 31.17ZM149.797 31L147.196 27.158L145.989 28.348V31H143.711V18.59H145.989V26.104L149.576 22.109H151.99L148.675 25.883L152.228 31H149.797ZM156.422 31.17C155.662 31.17 154.937 31.0453 154.246 30.796C153.554 30.5467 152.959 30.1783 152.461 29.691L153.277 28.212C153.809 28.6427 154.331 28.96 154.841 29.164C155.362 29.368 155.861 29.47 156.337 29.47C156.779 29.47 157.13 29.3907 157.391 29.232C157.663 29.0733 157.799 28.8353 157.799 28.518C157.799 28.3027 157.725 28.1383 157.578 28.025C157.43 27.9003 157.215 27.7927 156.932 27.702C156.66 27.6113 156.325 27.5093 155.929 27.396C155.271 27.1807 154.722 26.971 154.28 26.767C153.838 26.563 153.503 26.308 153.277 26.002C153.061 25.6847 152.954 25.2823 152.954 24.795C152.954 24.2057 153.101 23.7013 153.396 23.282C153.702 22.8513 154.121 22.517 154.654 22.279C155.198 22.041 155.832 21.922 156.558 21.922C157.192 21.922 157.793 22.024 158.36 22.228C158.926 22.4207 159.442 22.738 159.907 23.18L158.989 24.625C158.535 24.2737 158.105 24.0187 157.697 23.86C157.289 23.69 156.875 23.605 156.456 23.605C156.218 23.605 155.991 23.6333 155.776 23.69C155.572 23.7467 155.402 23.843 155.266 23.979C155.141 24.1037 155.079 24.285 155.079 24.523C155.079 24.7383 155.135 24.9083 155.249 25.033C155.373 25.1463 155.555 25.2483 155.793 25.339C156.042 25.4297 156.342 25.5317 156.694 25.645C157.408 25.849 158.008 26.0587 158.496 26.274C158.994 26.4893 159.368 26.7557 159.618 27.073C159.867 27.379 159.992 27.804 159.992 28.348C159.992 29.232 159.669 29.9233 159.023 30.422C158.377 30.9207 157.51 31.17 156.422 31.17Z" fill="black"/>
</svg>
